# xmcd
#
# Track frame offsets:
#	150
#	12427
#	26231
#	40648
#	58132
#	70238
#	86522
#	100264
#	114944
#	124619
#	136436
#	149079
#
# Disc length: 2211 seconds
# Revision: 0
# Processed by: cddbd v1.5.2PL0 Copyright (c) Steve Scherf et al.
# Submitted via: dBpowerAMP V12.0
#
DISCID=a908a10c
DTITLE=Pete Smith - I Thank You
DYEAR=1900
DGENRE=Country
TTITLE0=Outback Rodeo
TTITLE1=Mt Lindsay On Show
TTITLE2=Curio
TTITLE3=I Thank You
TTITLE4=Dinkum Aussie Rouseabout
TTITLE5=The Swallow Song
TTITLE6=Going Home
TTITLE7=Working Man
TTITLE8=Leslie The Drover
TTITLE9=Tribute To Cecil Pearce
TTITLE10=Walk Away
TTITLE11=Country Way Of Life
EXTD=
EXTT0=
EXTT1=
EXTT2=
EXTT3=
EXTT4=
EXTT5=
EXTT6=
EXTT7=
EXTT8=
EXTT9=
EXTT10=
EXTT11=
PLAYORDER=
